PathFileType	4	(X/Y/Z)	E:/Marcel_BSc/Hannes_22_01_2025/22-01-2025/static_01_hjc.trc	
DataRate	CameraRate	NumFrames	NumMarkers	Units	OrigDataRate	OrigDataStartFrame	OrigNumFrames	
200.00	200.00	4	72	mm	200.00	311	497	
Frame#	Time	FHD			LBHD			RBHD			RBAR			LBAR			RASI			RSACR			LSACR			LASI			USACR			C7			CLAV			T10			RSHO			LSHO			LTHI1			LTHI3			LTHI2			LLFC			LMFC			LTIB1			LTIB2			LTIB3			LMMAL			LLMAL			LHEE			LMT1			LMT5			LMT3			RTHI1			RTHI2			RTHI3			RLFC			RMFC			RTIB1			RTIB3			RTIB2			RLMAL			RMMAL			RHEE			RMT5			RMT1			RMT3			LMEP			LLEP			LDUPA			LMUPA			LUUPA			LUL			LRAD			LRFIN			RUL			RRAD			RUFIN			RMEP			RLEP			RMUPA			RDUPA			RUUPA			*59			*60			*61			*62			*63			*64			*65			RAJC			LAJC			LKJC			RKJC			LHJC			RHJC			
		X1	Y1	Z1	X2	Y2	Z2	X3	Y3	Z3	X4	Y4	Z4	X5	Y5	Z5	X6	Y6	Z6	X7	Y7	Z7	X8	Y8	Z8	X9	Y9	Z9	X10	Y10	Z10	X11	Y11	Z11	X12	Y12	Z12	X13	Y13	Z13	X14	Y14	Z14	X15	Y15	Z15	X16	Y16	Z16	X17	Y17	Z17	X18	Y18	Z18	X19	Y19	Z19	X20	Y20	Z20	X21	Y21	Z21	X22	Y22	Z22	X23	Y23	Z23	X24	Y24	Z24	X25	Y25	Z25	X26	Y26	Z26	X27	Y27	Z27	X28	Y28	Z28	X29	Y29	Z29	X30	Y30	Z30	X31	Y31	Z31	X32	Y32	Z32	X33	Y33	Z33	X34	Y34	Z34	X35	Y35	Z35	X36	Y36	Z36	X37	Y37	Z37	X38	Y38	Z38	X39	Y39	Z39	X40	Y40	Z40	X41	Y41	Z41	X42	Y42	Z42	X43	Y43	Z43	X44	Y44	Z44	X45	Y45	Z45	X46	Y46	Z46	X47	Y47	Z47	X48	Y48	Z48	X49	Y49	Z49	X50	Y50	Z50	X51	Y51	Z51	X52	Y52	Z52	X53	Y53	Z53	X54	Y54	Z54	X55	Y55	Z55	X56	Y56	Z56	X57	Y57	Z57	X58	Y58	Z58	X59	Y59	Z59	X60	Y60	Z60	X61	Y61	Z61	X62	Y62	Z62	X63	Y63	Z63	X64	Y64	Z64	X65	Y65	Z65	X66	Y66	Z66	X67	Y67	Z67	X68	Y68	Z68	X69	Y69	Z69	X70	Y70	Z70	X71	Y71	Z71	X72	Y72	Z72	

311	1.550	64.65925	1221.51025	1709.35583	149.60397	1120.87085	1680.37805	161.55833	1315.16479	1675.53247	-530.19739	2111.50684	25.80883	-499.42862	-112.27555	36.27413	110.01592	1329.59949	988.22339	302.79984	1256.09595	1050.15173	303.65350	1148.64099	1055.24573	116.75250	1060.69702	995.21735	304.13739	1201.63635	1074.45239	293.83456	1207.79175	1493.25269	123.63668	1207.50781	1450.37939	294.08743	1202.15930	1170.82483	273.10226	1367.38342	1484.63428	272.15680	1047.10986	1492.01147	212.85475	982.79089	792.23572	233.95699	982.16846	728.99823	183.94057	973.24127	732.02393	223.29706	998.52423	504.21490	206.48300	1106.42798	464.96344	269.26974	961.63495	267.84842	319.60812	966.65576	278.03308	306.04324	968.35486	214.10875	277.46008	1054.36023	86.25615	309.65628	965.96729	80.13906	354.48718	1015.28668	22.03887	142.83081	996.71765	40.00419	185.69180	915.62793	26.59992	149.05835	948.53870	30.10004	222.22035	1410.14099	782.08759	190.39182	1417.27747	724.31183	239.85330	1408.78442	717.83881	217.99187	1384.00830	494.72156	195.96510	1277.39880	477.45447	244.76965	1414.22412	277.42410	268.54181	1413.98035	215.70694	294.85791	1422.80444	274.36771	295.10712	1409.90564	79.96906	257.50443	1322.68738	83.34076	343.86963	1366.33789	30.18888	184.10789	1460.93884	27.36586	124.54691	1389.69470	35.99826	135.74237	1438.13538	28.36727	216.48131	770.11237	1357.82788	279.56839	762.91095	1448.31519	288.12122	829.82336	1441.77283	253.66600	888.32025	1483.51123	290.95016	891.01599	1450.40820	200.03049	520.40973	1481.20142	157.87929	534.75281	1502.13501	115.85856	434.08026	1492.80481	214.32729	1902.59656	1467.63721	170.89865	1884.20166	1492.08740	154.04276	1996.95508	1487.04846	229.16930	1638.89832	1352.02307	294.22015	1654.42578	1440.19543	309.04999	1549.10657	1426.33777	288.75580	1586.73669	1451.32031	289.42398	1510.25037	1471.69019				-535.80762	1937.51538	33.05912																276.30577	1366.29651	81.65491	293.55818	1010.16376	83.19761	214.89003	1052.47610	484.58917	206.97849	1330.70355	486.08801	210.20300	1104.66901	1025.23154	206.40788	1292.84772	1019.18756 
312	1.555	64.64218	1221.55603	1709.33337	149.55231	1120.91370	1680.38477	161.52008	1315.19690	1675.52942	-530.25079	2111.42651	25.81868	-499.42563	-112.27179	36.27008	110.01746	1329.60229	988.22089	302.79666	1256.10535	1050.16064	303.65439	1148.64624	1055.24780	116.74216	1060.71484	995.20538	304.15033	1201.64453	1074.45166	293.81485	1207.81836	1493.25964	123.61748	1207.53430	1450.38110	294.09314	1202.17078	1170.83423	273.07196	1367.39697	1484.64404	272.12036	1047.15173	1492.03198	212.83920	982.79407	792.25684	233.95676	982.17322	728.99176	183.92442	973.24188	732.01727	223.27103	998.52344	504.23172	206.46492	1106.43799	464.96194	269.25693	961.63165	267.83777	319.60760	966.66248	278.02798	306.02966	968.34814	214.10896	277.45810	1054.35645	86.25645	309.66101	965.97504	80.14555	354.48322	1015.28333	22.05540	142.82840	996.72363	40.00985	185.69783	915.63928	26.59690	149.06046	948.55182	30.09782	222.21951	1410.14966	782.09680	190.38118	1417.28015	724.33850	239.67656	1408.63538	718.21228	217.99823	1384.02258	494.72272	195.95763	1277.39221	477.45773	244.69472	1414.01294	277.63693	268.53906	1413.98059	215.70840	294.86237	1422.79785	274.38635	295.11816	1409.91162	79.96339	257.49966	1322.68665	83.33632	343.87671	1366.32825	30.20735	184.11076	1460.93420	27.37457	124.54373	1389.69995	36.00859	135.74754	1438.13684	28.37051	216.43111	770.12665	1357.84021	279.52567	762.92480	1448.37183	288.10742	829.84802	1441.78345	253.65620	888.33856	1483.53491	290.92172	891.02698	1450.43250	199.99104	520.43817	1481.24622	157.84090	534.77698	1502.18542	115.68559	434.15329	1492.88013	214.28264	1902.62781	1467.63086	170.85297	1884.22266	1492.05591	153.99530	1996.97974	1487.00793	229.15823	1638.91846	1352.03845	294.18643	1654.43689	1440.19336	309.01691	1549.13220	1426.33740	288.70145	1586.76074	1451.32959	289.38211	1510.27332	1471.71155	-537.64960	1679.04077	36.09444	-536.27631	1937.73389	32.97719	-507.59320	-22.85611	40.85558													276.30891	1366.29913	81.64986	293.55956	1010.16574	83.20100	214.86797	1052.48071	484.59683	206.97793	1330.70740	486.09023	210.19827	1104.68054	1025.22659	206.40706	1292.85382	1019.19077 
313	1.560	64.55795	1221.56372	1709.35669	149.52361	1120.94116	1680.38525	161.49800	1315.21863	1675.52563	-530.16235	2111.60522	25.87078	-499.42474	-112.27235	36.26877	110.01895	1329.60388	988.21985	302.80243	1256.11841	1050.15466	303.66147	1148.66272	1055.25208	116.76797	1060.71838	995.21851	304.14865	1201.65515	1074.45337	293.80350	1207.83826	1493.26624	123.60345	1207.56641	1450.38269	294.09525	1202.18274	1170.84229	273.06113	1367.42261	1484.65576	272.09485	1047.19373	1492.03442	212.84471	982.80157	792.27332	233.94496	982.17682	728.99738	183.91298	973.25287	732.03851	223.27344	998.52802	504.22342	206.46426	1106.43665	464.96042	269.25275	961.63568	267.82452	319.60425	966.64325	278.05374	306.01846	968.36597	214.12431	277.45090	1054.35889	86.25636	309.66312	965.98035	80.13741	354.47580	1015.29883	22.05942	142.83508	996.72327	39.99779	185.70229	915.64795	26.58316	149.07211	948.56226	30.09310	222.22711	1410.14966	782.10187	190.39919	1417.28638	724.31976	239.82285	1408.76294	717.89532	218.00218	1384.02820	494.71939	195.96481	1277.39673	477.46118	244.54436	1413.55518	277.39740	268.53387	1413.98901	215.69868	294.85852	1422.80835	274.35736	295.10748	1409.90186	79.98055	257.49500	1322.68408	83.33684	343.86780	1366.36108	30.21691	184.11113	1460.93274	27.37339	124.54999	1389.69165	36.00089	135.75343	1438.13782	28.36402	216.41405	770.13965	1357.88269	279.48816	762.94543	1448.40857	288.08191	829.85522	1441.83069	253.62482	888.36816	1483.57410	290.90381	891.04016	1450.45398	199.96414	520.45966	1481.31445	157.78452	534.79590	1502.23071	115.77520	434.14136	1492.87732	214.23346	1902.66138	1467.60352	170.79541	1884.24768	1492.02161	153.94118	1996.99512	1486.97705	229.14696	1638.91492	1352.02686	294.15085	1654.46692	1440.20630	308.99332	1549.16333	1426.34229	288.68503	1586.79175	1451.32983	289.36731	1510.30615	1471.70313				-536.13373	1937.60022	33.03649																276.30124	1366.29297	81.65870	293.55701	1010.16962	83.19689	214.86885	1052.48233	484.59192	206.98350	1330.71246	486.09029	210.21472	1104.69055	1025.23529	206.41069	1292.86115	1019.18726 
314	1.565	64.43858	1221.53943	1709.43384	149.50345	1120.96606	1680.39331	161.46964	1315.24683	1675.51868	-530.29425	2111.29028	25.80468	-499.41644	-112.26619	36.26877	110.02312	1329.61743	988.22791	302.80676	1256.13562	1050.14172	303.65970	1148.66797	1055.25195	116.76291	1060.73718	995.21741	304.15939	1201.67505	1074.45398	293.78149	1207.87354	1493.27039	123.58452	1207.58643	1450.38159	294.10739	1202.18689	1170.83142	273.02902	1367.44519	1484.66040	272.06778	1047.22888	1492.04883	212.85100	982.80975	792.25549	233.94936	982.17755	728.99969	183.90967	973.26221	732.03259	223.25012	998.52258	504.22910	206.45523	1106.44739	464.96198	269.24368	961.62183	267.83676	319.60681	966.65399	278.04825	306.04050	968.35992	214.10782	277.46246	1054.36023	86.25344	309.66174	965.99890	80.13235	354.48227	1015.29443	22.05625	142.82370	996.72839	40.01108	185.68884	915.63464	26.60719	149.06416	948.55780	30.09203	222.24092	1410.15283	782.09967	190.40314	1417.29346	724.31842	239.82501	1408.76233	717.89392	218.00400	1384.02307	494.71426	195.96739	1277.41187	477.46179	244.55598	1413.56091	277.37967	268.52835	1413.98108	215.71649	294.85095	1422.81091	274.37973	295.10086	1409.91479	79.97883	257.50140	1322.68408	83.33971	343.85864	1366.34375	30.20475	184.11159	1460.94446	27.38278	124.54568	1389.69543	36.00456	135.75146	1438.14417	28.36805	216.37799	770.15594	1357.90271	279.33478	762.90289	1448.26221	288.00537	829.81232	1441.69348	253.61771	888.39984	1483.60144	290.86868	891.06403	1450.47632	199.89789	520.48572	1481.40259	157.74046	534.83154	1502.26257	115.58404	434.20157	1492.96863	214.21066	1902.69897	1467.56885	170.72585	1884.27100	1492.00854	153.89333	1997.01733	1486.93079	229.13448	1638.94092	1352.02551	294.11993	1654.47668	1440.20886	308.96103	1549.19043	1426.35400	288.65781	1586.80481	1451.33643	289.33511	1510.32275	1471.71582	-538.83356	1681.21704	41.85275	-535.57300	1932.86426	33.28147																276.30113	1366.29944	81.65927	293.56210	1010.17957	83.19290	214.85268	1052.48499	484.59554	206.98569	1330.71747	486.08803	210.21130	1104.70258	1025.23468	206.41494	1292.87653	1019.18481 
